<?xml version="1.0" standalone="no"?>
<!DOCTYPE svg PUBLIC "-//W3C//DTD SVG 20010904//EN"
 "http://www.w3.org/TR/2001/REC-SVG-20010904/DTD/svg10.dtd">
<svg version="1.0" xmlns="http://www.w3.org/2000/svg"
 width="300.000000pt" height="28.000000pt" viewBox="0 0 300.000000 28.000000"
 preserveAspectRatio="xMidYMid meet">
<metadata>
Created by potrace 1.10, written by Peter Selinger 2001-2011
</metadata>
<g transform="translate(0.000000,28.000000) scale(0.100000,-0.100000)"
fill="#5b1295" stroke="none">
<path d="M570 195 c0 -47 0 -88 -1 -92 0 -4 4 -9 10 -11 7 -2 11 28 11 92 0
57 -4 96 -10 96 -6 0 -10 -35 -10 -85z"/>
<path d="M742 250 c5 -34 5 -34 -21 -19 -61 39 -117 -58 -69 -118 13 -16 52
-17 79 -3 11 6 18 7 17 3 -2 -4 2 -10 7 -13 6 -3 11 30 13 88 2 80 1 92 -14
92 -12 0 -15 -7 -12 -30z m-13 -44 c31 -37 -9 -103 -46 -80 -37 23 -24 94 17
94 10 0 23 -6 29 -14z"/>
<path d="M1048 273 c7 -3 16 -2 19 1 4 3 -2 6 -13 5 -11 0 -14 -3 -6 -6z"/>
<path d="M1224 250 c6 -33 4 -35 -23 -19 -51 33 -108 -38 -79 -98 15 -31 54
-41 88 -23 11 6 19 7 18 3 -2 -4 2 -10 7 -13 6 -3 11 30 13 88 2 80 1 92 -14
92 -13 0 -15 -6 -10 -30z m-15 -44 c31 -37 -9 -103 -46 -80 -37 23 -24 94 17
94 10 0 23 -6 29 -14z"/>
<path d="M2020 195 c0 -47 0 -88 -1 -92 0 -4 4 -9 10 -11 7 -2 11 13 11 39 0
35 2 40 13 28 32 -37 76 -71 86 -65 9 6 -21 37 -69 74 -3 2 13 19 35 38 23 20
34 34 25 34 -9 0 -32 -14 -53 -31 l-37 -30 0 50 c0 28 -4 51 -10 51 -6 0 -10
-35 -10 -85z"/>
<path d="M2173 260 c3 -13 0 -20 -9 -20 -8 0 -14 -4 -14 -10 0 -5 6 -10 13
-10 8 0 11 -14 9 -48 -3 -32 1 -52 10 -59 20 -17 61 -20 66 -5 3 9 -3 13 -19
10 -22 -3 -24 1 -29 50 -6 51 -5 52 22 52 16 0 28 5 28 10 0 6 -13 10 -29 10
-24 0 -28 3 -24 20 4 14 0 20 -12 20 -12 0 -16 -6 -12 -20z"/>
<path d="M2448 273 c7 -3 16 -2 19 1 4 3 -2 6 -13 5 -11 0 -14 -3 -6 -6z"/>
<path d="M2530 185 c0 -57 4 -95 10 -95 6 0 10 38 10 95 0 57 -4 95 -10 95 -6
0 -10 -38 -10 -95z"/>
<path d="M43 228 c2 -7 12 -39 21 -71 21 -73 46 -75 61 -5 5 25 13 49 16 52 3
3 11 -19 18 -49 10 -43 17 -55 32 -55 10 0 19 6 19 13 0 8 8 39 19 70 17 54
17 57 1 57 -14 0 -20 -11 -25 -50 -4 -27 -10 -50 -14 -50 -4 0 -13 23 -20 50
-9 37 -18 50 -31 50 -13 0 -19 -11 -24 -42 -11 -70 -21 -74 -35 -13 -8 37 -17
55 -28 55 -8 0 -13 -6 -10 -12z"/>
<path d="M290 220 c-26 -26 -26 -81 -2 -103 21 -19 64 -22 92 -7 36 19 34 97
-4 122 -21 14 -66 8 -86 -12z m78 -12 c7 -7 12 -24 12 -38 0 -32 -17 -50 -46
-50 -28 0 -37 14 -36 53 1 43 42 63 70 35z"/>
<path d="M447 168 c1 -82 23 -111 23 -31 0 59 18 88 49 80 14 -3 21 -1 21 9 0
17 -41 19 -58 2 -9 -9 -12 -9 -12 0 0 7 -6 12 -12 12 -9 0 -13 -20 -11 -72z"/>
<path d="M823 170 c15 -54 24 -70 39 -70 10 0 18 7 19 18 0 9 6 35 13 57 l13
40 13 -57 c10 -44 17 -58 31 -58 13 0 21 12 29 43 6 23 15 54 20 70 7 21 6 27
-5 27 -13 0 -23 -27 -38 -95 -4 -23 -7 -17 -26 53 -7 24 -18 42 -26 42 -8 0
-19 -18 -25 -42 -17 -66 -22 -77 -27 -53 -14 67 -25 95 -37 95 -11 0 -9 -15 7
-70z"/>
<path d="M1047 168 c2 -101 23 -104 23 -4 0 54 -4 76 -12 76 -9 0 -13 -20 -11
-72z"/>
<path d="M1310 220 c-29 -29 -27 -85 4 -105 26 -17 115 -18 106 -1 -3 6 -23 9
-46 7 -27 -1 -45 3 -53 13 -15 18 -15 18 58 16 l54 -2 -7 34 c-3 18 -14 39
-23 46 -25 18 -70 15 -93 -8z m78 -12 c25 -25 13 -38 -33 -38 -49 0 -53 4 -28
32 19 21 44 23 61 6z"/>
<path d="M1572 224 c-29 -20 -31 -83 -3 -108 22 -20 92 -19 98 1 3 9 -6 10
-33 6 -29 -5 -40 -2 -50 12 -32 44 -2 91 53 82 34 -6 46 6 17 17 -27 10 -59 7
-82 -10z"/>
<path d="M1724 232 c-38 -25 -40 -103 -4 -122 28 -15 76 -12 91 6 21 25 17 93
-6 110 -20 15 -63 18 -81 6z m65 -26 c31 -37 -9 -103 -46 -80 -37 23 -24 94
17 94 10 0 23 -6 29 -14z"/>
<path d="M1883 225 c-30 -21 -32 -84 -4 -109 22 -20 92 -19 98 1 3 8 -6 10
-30 6 -24 -3 -38 0 -50 12 -39 38 -6 91 50 82 24 -4 33 -2 30 6 -6 19 -69 20
-94 2z"/>
<path d="M2287 233 c-15 -14 -5 -20 34 -19 25 1 44 -4 46 -11 3 -9 -6 -13 -27
-13 -17 0 -40 -5 -51 -10 -21 -12 -25 -50 -7 -68 15 -15 65 -16 74 -1 5 8 10
6 16 -5 15 -27 28 -8 28 42 0 65 -21 92 -69 92 -21 0 -41 -3 -44 -7z m83 -76
c0 -33 -48 -49 -69 -24 -8 10 -7 17 1 25 16 16 68 15 68 -1z"/>
<path d="M2450 165 c0 -43 4 -75 10 -75 6 0 10 32 10 75 0 43 -4 75 -10 75 -6
0 -10 -32 -10 -75z"/>
<path d="M2613 233 c-7 -2 -13 -17 -13 -33 0 -24 6 -30 43 -42 52 -18 47 -33
-11 -32 -56 0 -50 -20 7 -24 79 -6 100 52 26 72 -56 16 -54 42 3 39 42 -2 56
9 26 21 -18 7 -63 7 -81 -1z"/>
</g>
</svg>
